<svg width="24" height="24" viewBox="0 0 24 24" fill="none" xmlns="http://www.w3.org/2000/svg">
<path d="M21.6461 17.3588C21.6461 17.9508 21.1663 18.4306 20.5743 18.4306H3.42562C2.83368 18.4306 2.35382 17.9508 2.35382 17.3588C2.35382 16.7669 2.83368 16.287 3.42562 16.287H20.5743C21.1663 16.287 21.6461 16.7669 21.6461 17.3588ZM21.6461 11.9999C21.6461 12.5918 21.1663 13.0717 20.5743 13.0717H3.42562C2.83368 13.0717 2.35382 12.5918 2.35382 11.9999C2.35382 11.4079 2.83368 10.9281 3.42562 10.9281H20.5743C21.1663 10.9281 21.6461 11.4079 21.6461 11.9999ZM21.6461 6.64089C21.6461 7.23282 21.1663 7.71268 20.5743 7.71268H3.42562C2.83368 7.71268 2.35382 7.23282 2.35382 6.64089C2.35382 6.04895 2.83368 5.56909 3.42562 5.56909H20.5743C21.1663 5.56909 21.6461 6.04895 21.6461 6.64089Z" fill="#333B48"/>
</svg>
