<svg width="24" height="24" viewBox="0 0 24 24" fill="none" xmlns="http://www.w3.org/2000/svg">
<path fill-rule="evenodd" clip-rule="evenodd" d="M19.9549 4.04507C20.4431 4.53323 20.4431 5.32468 19.9549 5.81284L13.7677 12L19.9549 18.1872C20.4431 18.6754 20.4431 19.4668 19.9549 19.955C19.4668 20.4431 18.6753 20.4431 18.1871 19.955L12 13.7678L5.81278 19.955C5.32462 20.4431 4.53317 20.4431 4.04501 19.955C3.55686 19.4668 3.55686 18.6754 4.04501 18.1872L10.2322 12L4.04501 5.81284C3.55686 5.32468 3.55686 4.53323 4.04501 4.04507C4.53317 3.55692 5.32462 3.55692 5.81278 4.04507L12 10.2323L18.1871 4.04507C18.6753 3.55692 19.4668 3.55692 19.9549 4.04507Z" fill="#F5F5F5"/>
</svg>
